<svg width="24" height="24" viewBox="0 0 24 24" fill="none" xmlns="http://www.w3.org/2000/svg">
<rect width="24" height="24" rx="8" fill="#27272A"/>
<path d="M16.5426 6.33432L16.0546 9.60947C15.9525 10.2945 16.1392 10.9912 16.5701 11.5334L18.6304 14.1258C19.4772 15.1913 18.5812 16.7433 17.235 16.5426L13.9598 16.0546C13.2748 15.9525 12.5781 16.1392 12.0359 16.5701L9.44352 18.6304C8.37793 19.4772 6.826 18.5812 7.02663 17.235L7.5147 13.9598C7.61679 13.2748 7.43011 12.5781 6.99918 12.0359L4.93892 9.44352C4.09204 8.37793 4.98804 6.826 6.33432 7.02663L9.60947 7.5147C10.2945 7.61679 10.9912 7.43011 11.5334 6.99918L14.1258 4.93892C15.1913 4.09204 16.7433 4.98804 16.5426 6.33432Z" fill="white" stroke="#27272A"/>
<path d="M18.6304 9.44353L16.5702 12.0359C16.1392 12.5781 15.9525 13.2748 16.0546 13.9598L16.5427 17.235C16.7433 18.5812 15.1914 19.4772 14.1258 18.6304L11.5335 16.5701C10.9913 16.1392 10.2946 15.9525 9.60953 16.0546L6.33437 16.5426C4.9881 16.7433 4.0921 15.1913 4.93898 14.1258L6.99924 11.5334C7.43017 10.9912 7.61685 10.2945 7.51476 9.60947L7.02669 6.33431C6.82606 4.98804 8.37799 4.09204 9.44358 4.93892L12.0359 6.99918C12.5781 7.43011 13.2748 7.61679 13.9599 7.5147L17.235 7.02663C18.5813 6.826 19.4773 8.37793 18.6304 9.44353Z" fill="white" stroke="#27272A"/>
<path d="M13.1801 4.68554L14.395 7.76594C14.6491 8.41025 15.1591 8.92027 15.8034 9.17438L18.8838 10.3893C20.15 10.8887 20.15 12.6807 18.8838 13.1801L15.8034 14.395C15.1591 14.6491 14.6491 15.1591 14.395 15.8034L13.1801 18.8838C12.6807 20.15 10.8887 20.15 10.3893 18.8838L9.17438 15.8034C8.92027 15.1591 8.41025 14.6491 7.76595 14.395L4.68554 13.1801C3.41933 12.6807 3.41933 10.8887 4.68554 10.3893L7.76594 9.17438C8.41025 8.92027 8.92027 8.41025 9.17438 7.76595L10.3893 4.68554C10.8887 3.41933 12.6807 3.41933 13.1801 4.68554Z" fill="white" stroke="#27272A"/>
</svg>
